<?xml version="1.0" standalone="no"?>
<!DOCTYPE svg PUBLIC "-//W3C//DTD SVG 20010904//EN"
 "http://www.w3.org/TR/2001/REC-SVG-20010904/DTD/svg10.dtd">
<svg version="1.0" xmlns="http://www.w3.org/2000/svg"
 width="500.000000pt" height="500.000000pt" viewBox="0 0 500.000000 500.000000"
 preserveAspectRatio="xMidYMid meet">
<metadata>
Created by potrace 1.14, written by Peter Selinger 2001-2017
</metadata>
<g transform="translate(0.000000,500.000000) scale(0.100000,-0.100000)"
fill="#000000" stroke="none">
<path d="M2017 4774 c-1 -1 -58 -4 -127 -8 -69 -3 -136 -8 -150 -10 -14 -3
-50 -7 -80 -11 -170 -17 -436 -83 -588 -144 -84 -33 -261 -123 -327 -166 -334
-213 -533 -525 -540 -845 -3 -150 33 -239 131 -329 118 -108 262 -146 449
-117 119 18 148 45 315 296 121 182 125 188 197 263 146 154 315 239 548 273
169 25 469 25 597 0 235 -45 351 -120 433 -277 33 -64 83 -217 87 -266 3 -28
5 -28 98 -2 41 11 83 22 93 24 9 2 21 6 25 9 5 3 21 7 36 10 34 6 35 6 331
101 132 43 293 98 358 123 l118 45 -6 31 c-14 71 -60 197 -106 291 -180 369
-516 577 -1073 665 -67 10 -149 21 -183 24 -35 3 -89 9 -121 12 -53 5 -509 13
-515 8z"/>
<path d="M4957 4125 c-21 -115 -130 -240 -317 -360 -269 -174 -759 -369 -1320
-526 -118 -33 -255 -73 -305 -89 -145 -47 -609 -171 -695 -186 -14 -3 -31 -7
-39 -10 -12 -4 -125 -30 -211 -48 -14 -3 -99 -22 -190 -42 -91 -19 -174 -37
-185 -39 -11 -2 -31 -6 -45 -9 -14 -3 -36 -7 -50 -10 -14 -2 -115 -23 -225
-46 -110 -23 -211 -43 -224 -46 -92 -19 -330 -91 -346 -105 -5 -5 -15 -9 -23
-9 -23 0 -171 -78 -259 -137 -98 -64 -252 -212 -316 -303 -87 -124 -137 -237
-178 -404 -26 -104 -33 -344 -14 -466 53 -332 240 -623 525 -815 132 -89 322
-176 435 -199 11 -3 49 -11 85 -20 109 -26 303 -39 470 -32 85 3 169 8 185 10
17 3 63 10 104 16 275 40 526 134 820 307 128 76 315 201 388 260 l41 34 65
-99 c177 -271 327 -428 474 -498 120 -56 292 -41 433 39 77 44 186 156 217
223 53 116 45 211 -38 499 -28 94 -51 177 -53 185 -2 8 -9 33 -14 55 -19 70
-41 188 -48 249 -3 33 -8 69 -10 80 -5 19 -5 709 -1 1124 l1 152 121 66 c429
235 673 486 757 781 18 65 22 101 21 213 -1 79 -7 158 -15 190 l-14 55 -7 -40z
m-1963 -1869 c-5 -286 -26 -445 -81 -621 -70 -227 -229 -403 -486 -540 -75
-39 -277 -109 -344 -119 -24 -3 -62 -9 -85 -13 -24 -4 -104 -7 -178 -7 -108 1
-151 5 -214 23 -81 22 -188 68 -194 83 -2 4 -10 8 -18 8 -25 0 -168 153 -202
216 -82 157 -90 355 -18 507 45 96 117 169 245 246 119 71 166 85 806 227 138
30 263 58 279 60 52 10 380 102 431 121 29 11 53 15 56 10 4 -5 5 -96 3 -201z"/>
</g>
</svg>
